# xmcd
#
# Track frame offsets:
#	150
#	16925
#	39556
#	57759
#	80123
#
# Disc length: 1255 seconds
#
# Revision: 0
# Processed by: cddbd v1.5.2PL0 Copyright (c) Steve Scherf et al.
# Submitted via: EZCDAudioConverter 5.0.5.1
#
DISCID=3604e505
DTITLE=Circus No. 9
DYEAR=1900
DGENRE=Bluegrass
TTITLE0=Mean Streak
TTITLE1=Shenandoah Sundown
TTITLE2=The Open Road
TTITLE3=Fisherman's Friend
TTITLE4=Down The Road
EXTD=
EXTT0=
EXTT1=
EXTT2=
EXTT3=
EXTT4=
PLAYORDER=
